<?xml version="1.0" encoding="UTF-8" standalone="no"?>
<svg
   xmlns:dc="http://purl.org/dc/elements/1.1/"
   xmlns:cc="http://creativecommons.org/ns#"
   xmlns:rdf="http://www.w3.org/1999/02/22-rdf-syntax-ns#"
   xmlns:svg="http://www.w3.org/2000/svg"
   xmlns="http://www.w3.org/2000/svg"
   xmlns:sodipodi="http://sodipodi.sourceforge.net/DTD/sodipodi-0.dtd"
   xmlns:inkscape="http://www.inkscape.org/namespaces/inkscape"
   width="370mm"
   height="210mm"
   viewBox="0 0 370 210"
   version="1.1"
   id="svg8"
   inkscape:version="1.0 (1.0+r73+1)"
   sodipodi:docname="drawing.svg">
  <defs
     id="defs2">
    <rect
       x="163.5125"
       y="136.25023"
       width="101.86458"
       height="66.939583"
       id="rect377" />
    <rect
       x="84.743958"
       y="38.885983"
       width="73.387802"
       height="65.053909"
       id="rect371" />
  </defs>
  <sodipodi:namedview
     id="base"
     pagecolor="#ffffff"
     bordercolor="#666666"
     borderopacity="1.0"
     inkscape:pageopacity="0.0"
     inkscape:pageshadow="2"
     inkscape:zoom="0.70710678"
     inkscape:cx="676.19611"
     inkscape:cy="440.48216"
     inkscape:document-units="mm"
     inkscape:current-layer="g142"
     inkscape:document-rotation="0"
     showgrid="false"
     showguides="false"
     inkscape:window-width="1920"
     inkscape:window-height="1012"
     inkscape:window-x="0"
     inkscape:window-y="32"
     inkscape:window-maximized="1" />
  <metadata
     id="metadata5">
    <rdf:RDF>
      <cc:Work
         rdf:about="">
        <dc:format>image/svg+xml</dc:format>
        <dc:type
           rdf:resource="http://purl.org/dc/dcmitype/StillImage" />
        <dc:title />
      </cc:Work>
    </rdf:RDF>
  </metadata>
  <g
     inkscape:label="Layer 1"
     inkscape:groupmode="layer"
     id="layer1">
    <path
       style="fill:none;stroke:#000000;stroke-width:0.264583px;stroke-linecap:butt;stroke-linejoin:miter;stroke-opacity:1"
       d="m -33.261948,219.08202 c -0.465905,0.33336 -0.810194,0.81016 -1.215289,1.21524"
       id="path30" />
    <path
       style="fill:#800000;stroke:#000000;stroke-width:0.264583px;stroke-linecap:butt;stroke-linejoin:miter;stroke-opacity:1"
       d="m -33.261948,219.08202 c -0.384577,1.27592 -1.371481,7.96206 -1.215289,1.21524"
       id="path32" />
    <g
       id="g94">
      <g
         id="g100">
        <g
           id="g142"
           inkscape:export-xdpi="238.991"
           inkscape:export-ydpi="238.991">
          <g
             inkscape:export-ydpi="240.86353"
             inkscape:export-xdpi="240.86353"
             id="g265">
            <g
               id="g367"
               transform="matrix(4.7796145,0,0,4.1478636,-327.48924,-43.162655)">
              <path
                 sodipodi:nodetypes="cssssssssssssssssssssc"
                 id="path72"
                 d="m 155.00683,12.50205 c -2.97087,3.697684 -5.89604,5.390896 -9.13768,7.778038 -2.11177,1.555118 -5.60107,2.113799 -8.02138,3.308841 -3.9201,1.93556 -6.36312,5.057105 -9.60637,7.638684 -4.76917,3.796206 -12.00593,2.450639 -17.54978,4.587645 -4.07144,1.569425 -5.0298,6.106891 -8.63765,7.987782 -5.848135,3.048824 -12.959625,3.469365 -18.991553,6.139317 -2.468232,1.092534 -3.884643,3.690589 -5.835421,5.270304 -1.207418,0.977756 -3.379515,2.73977 -5.218085,2.795953 -0.167442,0.0051 -3.452916,1.026551 -3.455552,1.101207 -0.01774,0.502559 1.193834,0.0054 1.765478,0.138165 2.365954,0.549672 2.711831,-0.192903 4.831803,-1.436452 2.213953,-1.298674 4.868755,-1.975852 7.139419,-3.239565 2.289906,-1.274422 4.021567,-3.084696 6.365533,-4.315898 2.548585,-1.338682 7.06916,-2.37626 10.015471,-3.576703 3.186267,-1.298208 6.397817,-2.296815 9.212347,-4.144109 2.56727,-1.685024 4.1632,-3.638284 7.33123,-4.840092 6.26792,-2.377773 12.60241,-4.346443 18.52719,-7.35916 2.8119,-1.429844 4.62436,-3.727885 7.29839,-5.187184 2.21278,-1.207583 4.89642,-1.660613 7.1686,-2.788874 3.34838,-1.662649 6.64041,-5.394339 6.79801,-9.857901 z"
                 style="fill:#502d16;stroke:#502d16;stroke-width:0.326062px;stroke-linecap:butt;stroke-linejoin:miter;stroke-opacity:1" />
              <g
                 id="g181"
                 transform="matrix(1.1042864,0,0,1.2207596,-3.968015,-7.9403404)">
                <g
                   id="g263"
                   style="stroke:#005500"
                   transform="rotate(-13.828122,123.69202,52.122207)">
                  <g
                     id="g271"
                     transform="translate(4.6963542,-0.26458333)">
                    <path
                       id="path124"
                       d="m 118.28639,32.439493 c -0.76701,-0.143631 -1.91314,-0.09236 -2.37314,0.0024 -1.06489,1.031294 -2.7285,-0.0492 -3.93575,-0.240466 -0.12097,-0.01914 -0.91385,-0.244717 -1.00215,-0.05823 -0.0277,0.0584 0.12647,-0.03267 0.18311,-0.06385 0.47947,-0.263877 0.83433,-0.534078 1.38488,-0.678676 0.81243,-0.213374 2.17035,-0.345577 2.80978,0.343831 0.21586,0.232778 0.28203,0.53673 0.56014,0.69736"
                       style="fill:#005500;stroke:#005500;stroke-width:0.264583px;stroke-linecap:butt;stroke-linejoin:miter;stroke-opacity:1" />
                    <path
                       style="fill:#005500;stroke:#005500;stroke-width:0.264583px;stroke-linecap:butt;stroke-linejoin:miter;stroke-opacity:1"
                       d="m 121.23706,33.635649 c 0.778,-0.06042 1.87152,-0.407485 2.29114,-0.618443 0.76063,-1.272395 2.64772,-0.660854 3.86323,-0.78957 0.12179,-0.0129 0.94605,-9.24e-4 0.98291,-0.203943 0.0116,-0.06357 -0.11366,0.06439 -0.16026,0.109189 -0.39453,0.379313 -0.66708,0.73238 -1.16121,1.014949 -0.72917,0.416979 -2.00621,0.897187 -2.80269,0.397427 -0.26892,-0.16873 -0.41171,-0.445107 -0.72197,-0.528048"
                       id="path122" />
                  </g>
                </g>
                <g
                   id="g190"
                   transform="rotate(24.997854,88.190399,8.9338664)">
                  <g
                     id="g237"
                     transform="translate(-13.32858,-2.433561)">
                    <g
                       id="g255"
                       transform="translate(14.170598,1.026574)">
                      <path
                         sodipodi:nodetypes="csccsscc"
                         style="fill:#00002b;fill-opacity:1;stroke:#00002b;stroke-width:0.264583px;stroke-linecap:butt;stroke-linejoin:miter;stroke-opacity:1"
                         d="m 121.96829,19.85734 c -1.12375,0.554511 0.56181,1.166286 0.85308,1.746792 0.27262,0.54337 -0.21097,1.068839 -0.13912,1.097738 0.96454,0.387804 2.57499,0.803842 3.23767,-0.04083 0.0643,-0.08191 0.30671,-0.07903 0.26049,-0.172322 -0.0615,-0.124165 -2.28359,-1.748876 -2.50957,-1.824123 -0.59276,-0.197381 -1.08185,-0.608212 -1.70258,-0.807251 z"
                         id="path219" />
                      <path
                         style="fill:#00002b;fill-opacity:1;stroke:#00002b;stroke-width:0.264583px;stroke-linecap:butt;stroke-linejoin:miter;stroke-opacity:1"
                         d="m 123.8708,21.131592 c 0.69098,0.982781 0.88109,1.655801 2.32293,1.404338 0.32052,-0.0559 0.6654,-0.240348 0.99405,-0.228457 0.85261,0.03085 1.18096,0.149956 1.89431,-0.458108 0.20926,-0.178368 0.84697,-1.242698 0.41023,-1.479407 -1.06149,-0.575307 -4.22622,0.862825 -5.62152,0.761634 z"
                         id="path217" />
                      <path
                         style="fill:#00002b;fill-opacity:1;stroke:#00002b;stroke-width:0.264583px;stroke-linecap:butt;stroke-linejoin:miter;stroke-opacity:1"
                         d="m 128.97184,14.444748 c 1.3214,-0.902901 0.82338,1.127275 0.90541,1.220045 0.30306,0.342755 0.93198,0.395328 1.17645,0.747149 0.56757,0.816814 0.92673,3.897827 -1.88144,4.238499 -0.96906,0.117561 -1.97298,-0.3915 -2.02784,-1.657292 -0.0259,-0.597262 0.98374,-2.093592 1.1183,-2.674977 0.12531,-0.542938 0.15475,-1.573021 0.70912,-1.873424 z"
                         id="path215"
                         sodipodi:nodetypes="csssscc" />
                      <path
                         style="fill:#000055;stroke:#000055;stroke-width:0.264583px;stroke-linecap:butt;stroke-linejoin:miter;stroke-opacity:1"
                         d="m 123.11866,20.823827 c 0.93179,-0.07238 1.25295,0.844009 2.01035,1.104342 1.45037,0.49852 2.58723,-1.323128 3.39961,-2.215921 0.29241,-0.321357 0.80051,-0.299597 1.08342,-0.628323 0.26265,-0.305187 0.5766,-1.705877 -0.18405,-1.717854 -0.49206,-0.0077 -1.05668,0.809576 -1.45533,1.063101 -1.68309,1.070386 -3.17271,2.047212 -5.10358,2.44623"
                         id="path213" />
                      <path
                         style="fill:#00002b;stroke:#00002b;stroke-width:0.264583px;stroke-linecap:butt;stroke-linejoin:miter;stroke-opacity:1"
                         d="m 122.48496,15.310753 c -1.5324,-0.227225 -1.92782,1.681877 -1.55424,2.858059 0.12637,0.397874 0.57013,0.661836 0.68999,1.027771 0.0878,0.267994 -0.0236,0.602672 0.18767,0.825318 0.20472,0.215775 1.05997,0.529238 1.37497,0.628787 2.15996,0.682589 3.69219,-1.10536 1.80876,-2.883788 -0.40656,-0.383895 -0.73368,-0.85541 -1.19884,-1.17539 -0.29965,-0.206133 -0.80614,-0.355796 -0.99467,-0.686234 -0.1239,-0.217174 -0.11812,-0.414491 -0.31364,-0.594523 z"
                         id="path211" />
                      <path
                         style="fill:#000055;stroke:#000055;stroke-width:0.264583px;stroke-linecap:butt;stroke-linejoin:miter;stroke-opacity:1"
                         d="m 122.48496,15.310752 c -0.71845,-1.691392 0.63744,-1.252397 1.23086,-1.858414 0.16954,-0.173132 0.17569,-0.523251 0.36376,-0.655224 0.63553,-0.445962 1.26336,-0.04661 1.86477,-0.01228 0.37862,0.02162 0.60214,-0.136884 0.94468,-0.241978 0.78318,-0.240285 1.23828,0.42369 1.75054,0.813387 0.24069,0.18311 0.5549,0.263065 0.71388,0.5524 0.24329,0.442762 -0.40222,1.108176 -0.21589,1.694851 0.14705,0.463017 0.83039,1.476597 0.11101,1.869625 -0.19879,0.108608 -0.52059,-0.239262 -0.79374,-0.280668 -0.62537,-0.0948 -1.26431,-0.0011 -1.89487,-0.100621 -0.63873,-0.100791 -1.24509,-0.333052 -1.87909,-0.440476 -0.98587,-0.167041 -1.58292,-0.672065 -2.19591,-1.340605 z"
                         id="path207" />
                      <g
                         id="g205">
                        <path
                           style="fill:#214478;stroke:#214478;stroke-width:0.24755px;stroke-linecap:butt;stroke-linejoin:miter;stroke-opacity:1"
                           d="m 123.95374,15.242071 c -0.24149,-0.263979 -0.37232,-0.695383 -0.26445,-1.049915 0.30768,-1.011187 1.05132,-0.339535 1.69559,-0.494911 0.59891,-0.144437 0.89929,-0.538227 1.64503,-0.173218 0.0936,0.04582 0.11768,0.2447 0.25667,0.318156 0.3516,0.185817 0.80483,0.04649 0.79335,0.516121 -0.003,0.125481 -0.0931,0.306505 -0.0389,0.427743 0.12002,0.268514 0.55127,0.2561 0.68447,0.526725 0.14331,0.291196 0.0151,0.542749 0.0584,0.837813 0.0281,0.191458 0.33583,0.212889 0.37722,0.417138 0.0516,0.254479 -0.16724,0.420841 -0.20999,0.653988 -0.0349,0.190518 0.17944,0.390116 0.0933,0.639847 -0.10441,0.30281 -0.80664,1.32094 -1.02669,1.594316 -0.0928,0.115334 -0.0241,0.32777 -0.13611,0.424209 -0.28646,0.246689 -0.79064,0.236606 -1.11224,0.420672 -0.28733,0.164449 -0.38961,0.479877 -0.74668,0.579752 -0.69628,0.194755 -2.89455,-0.34087 -3.40673,-1.000424 -0.28611,-0.368437 -0.002,-0.884541 -0.18278,-1.265555 -0.2828,-0.595906 -0.732,-1.398306 -0.58724,-2.075087 0.18147,-0.848327 1.44552,-2.173054 2.10782,-1.29737 z"
                           id="path179" />
                        <g
                           id="g177">
                          <path
                             id="path168"
                             d="m 123.17722,16.491313 c 0.0754,-0.420388 -0.34364,-0.72287 -0.26317,-1.14288 0.0837,-0.437021 0.47873,-0.316909 0.67255,-0.586477 0.20617,-0.286749 0.30761,-0.633741 0.62243,-0.838362 0.0537,-0.03488 1.9424,-0.218752 2.06779,-0.187974 0.20477,0.05026 0.24966,0.350297 0.40938,0.477453 0.30619,0.243766 0.75236,0.10084 1.04992,0.387767 0.13585,0.130989 -0.0259,0.535424 0.10721,0.691201 0.21811,0.255179 0.74265,0.376034 0.78534,0.721819 0.0341,0.275883 -0.1583,0.489515 -0.17545,0.751894 -0.12039,1.84223 -0.67393,1.129088 -1.70854,2.060192 -1.06567,0.959067 -0.12304,1.409523 -2.16805,1.094006 -0.36311,-0.05602 -0.66998,-0.298628 -0.94408,-0.526326 -0.19512,-0.162088 -0.46112,-0.141747 -0.65584,-0.266922 -0.33798,-0.217261 -0.3653,-1.43666 -0.43027,-1.845902 -0.17727,-1.116659 1.22948,-1.022488 0.63078,-0.789489 z"
                             style="fill:#2c5aa0;stroke:#2c5aa0;stroke-width:0.264583px;stroke-linecap:butt;stroke-linejoin:miter;stroke-opacity:1"
                             sodipodi:nodetypes="ccsssssccssssssc" />
                          <g
                             id="g166">
                            <path
                               style="fill:#3771c8;stroke:#3771c8;stroke-width:0.264583px;stroke-linecap:butt;stroke-linejoin:miter;stroke-opacity:1"
                               d="m 123.98345,16.141682 c -0.4572,-0.996625 0.68975,-1.576485 1.52473,-1.601535 0.36755,-0.01103 0.61316,0.449959 1.01093,0.515047 0.36806,0.06023 0.5193,0.308133 0.79369,0.541365 0.39139,0.332671 0.15998,0.385983 0.30077,0.808287 0.54853,1.645326 -3.54029,3.863774 -4.10634,1.571459 -0.0728,-0.294688 -0.54901,-0.537472 -0.41356,-0.890995 0.21254,-0.554706 0.8534,-0.874511 0.96497,-1.086488"
                               id="path159" />
                            <g
                               id="g157"
                               transform="translate(-0.13229167,0.13229167)">
                              <path
                                 id="path150"
                                 d="m 125.14477,16.656735 c -0.1025,1.560907 -1.45273,-0.218001 -0.63497,-1.199276 0.66942,-0.803276 2.59881,-0.03108 2.74873,0.913555 0.10712,0.674934 -0.72231,1.135193 -1.24069,1.368453 -0.61906,0.278562 -1.41752,0.495034 -1.76286,-0.281961 -0.11369,-0.255779 -0.0451,-0.505709 -0.0585,-0.770696 -0.0539,-1.067219 1.34974,-0.02057 0.94828,-0.03008 z"
                                 style="fill:#2c2ca0;stroke:#2c2ca0;stroke-width:0.264585px;stroke-linecap:butt;stroke-linejoin:miter;stroke-opacity:1" />
                              <path
                                 id="path152"
                                 d="m 125.43717,15.976265 c -0.1427,-0.09212 -0.75515,-0.273064 -0.86054,-0.0075 -0.10392,0.261871 0.1584,0.449147 0.20052,0.691743 0.0675,0.388813 0.14553,0.452047 0.5347,0.605276 0.24286,0.09562 0.27278,0.310233 0.63078,0.300757 0.46165,-0.01222 0.79155,-1.152153 0.47204,-1.413562 -0.0309,-0.0253 -0.8923,-0.164898 -0.9775,-0.176695 z"
                                 style="fill:#212178;stroke:#212178;stroke-width:0.264583px;stroke-linecap:butt;stroke-linejoin:miter;stroke-opacity:1" />
                              <path
                                 id="path126"
                                 d="m 125.14476,16.656729 c -0.43202,-1.151041 2.01551,-0.178879 0.51799,0.195492 -0.2415,0.06037 -0.36496,-0.01009 -0.51799,-0.195492 z"
                                 style="fill:#11002b;stroke:#11002b;stroke-width:0.264583px;stroke-linecap:butt;stroke-linejoin:miter;stroke-opacity:1" />
                            </g>
                          </g>
                        </g>
                      </g>
                    </g>
                  </g>
                </g>
              </g>
              <g
                 id="g206"
                 transform="matrix(1.0674202,0,0,1.2298351,-6.9015571,-9.8304751)">
                <g
                   transform="rotate(-13.828122,164.60645,150.62479)"
                   style="stroke:#005500"
                   id="g279">
                  <g
                     transform="translate(4.6963542,-0.26458333)"
                     id="g277">
                    <path
                       style="fill:#005500;stroke:#005500;stroke-width:0.264583px;stroke-linecap:butt;stroke-linejoin:miter;stroke-opacity:1"
                       d="m 118.28639,32.439493 c -0.76701,-0.143631 -1.91314,-0.09236 -2.37314,0.0024 -1.06489,1.031294 -2.7285,-0.0492 -3.93575,-0.240466 -0.12097,-0.01914 -0.91385,-0.244717 -1.00215,-0.05823 -0.0277,0.0584 0.12647,-0.03267 0.18311,-0.06385 0.47947,-0.263877 0.83433,-0.534078 1.38488,-0.678676 0.81243,-0.213374 2.17035,-0.345577 2.80978,0.343831 0.21586,0.232778 0.28203,0.53673 0.56014,0.69736"
                       id="path273" />
                    <path
                       id="path275"
                       d="m 121.23706,33.635649 c 0.778,-0.06042 1.87152,-0.407485 2.29114,-0.618443 0.76063,-1.272395 2.64772,-0.660854 3.86323,-0.78957 0.12179,-0.0129 0.94605,-9.24e-4 0.98291,-0.203943 0.0116,-0.06357 -0.11366,0.06439 -0.16026,0.109189 -0.39453,0.379313 -0.66708,0.73238 -1.16121,1.014949 -0.72917,0.416979 -2.00621,0.897187 -2.80269,0.397427 -0.26892,-0.16873 -0.41171,-0.445107 -0.72197,-0.528048"
                       style="fill:#005500;stroke:#005500;stroke-width:0.264583px;stroke-linecap:butt;stroke-linejoin:miter;stroke-opacity:1" />
                  </g>
                </g>
                <g
                   transform="rotate(24.997854,48.643852,-34.359726)"
                   id="g317">
                  <g
                     transform="translate(-13.32858,-2.433561)"
                     id="g315">
                    <g
                       transform="translate(14.170598,1.026574)"
                       id="g313">
                      <path
                         id="path281"
                         d="m 121.96829,19.85734 c -1.12375,0.554511 0.56181,1.166286 0.85308,1.746792 0.27262,0.54337 -0.21097,1.068839 -0.13912,1.097738 0.96454,0.387804 2.57499,0.803842 3.23767,-0.04083 0.0643,-0.08191 0.30671,-0.07903 0.26049,-0.172322 -0.0615,-0.124165 -2.28359,-1.748876 -2.50957,-1.824123 -0.59276,-0.197381 -1.08185,-0.608212 -1.70258,-0.807251 z"
                         style="fill:#00002b;fill-opacity:1;stroke:#00002b;stroke-width:0.264583px;stroke-linecap:butt;stroke-linejoin:miter;stroke-opacity:1"
                         sodipodi:nodetypes="csccsscc" />
                      <path
                         id="path283"
                         d="m 123.8708,21.131592 c 0.69098,0.982781 0.88109,1.655801 2.32293,1.404338 0.32052,-0.0559 0.6654,-0.240348 0.99405,-0.228457 0.85261,0.03085 1.18096,0.149956 1.89431,-0.458108 0.20926,-0.178368 0.84697,-1.242698 0.41023,-1.479407 -1.06149,-0.575307 -4.22622,0.862825 -5.62152,0.761634 z"
                         style="fill:#00002b;fill-opacity:1;stroke:#00002b;stroke-width:0.264583px;stroke-linecap:butt;stroke-linejoin:miter;stroke-opacity:1" />
                      <path
                         sodipodi:nodetypes="csssscc"
                         id="path285"
                         d="m 128.97184,14.444748 c 1.3214,-0.902901 0.82338,1.127275 0.90541,1.220045 0.30306,0.342755 0.93198,0.395328 1.17645,0.747149 0.56757,0.816814 0.92673,3.897827 -1.88144,4.238499 -0.96906,0.117561 -1.97298,-0.3915 -2.02784,-1.657292 -0.0259,-0.597262 0.98374,-2.093592 1.1183,-2.674977 0.12531,-0.542938 0.15475,-1.573021 0.70912,-1.873424 z"
                         style="fill:#00002b;fill-opacity:1;stroke:#00002b;stroke-width:0.264583px;stroke-linecap:butt;stroke-linejoin:miter;stroke-opacity:1" />
                      <path
                         id="path287"
                         d="m 123.11866,20.823827 c 0.93179,-0.07238 1.25295,0.844009 2.01035,1.104342 1.45037,0.49852 2.58723,-1.323128 3.39961,-2.215921 0.29241,-0.321357 0.80051,-0.299597 1.08342,-0.628323 0.26265,-0.305187 0.5766,-1.705877 -0.18405,-1.717854 -0.49206,-0.0077 -1.05668,0.809576 -1.45533,1.063101 -1.68309,1.070386 -3.17271,2.047212 -5.10358,2.44623"
                         style="fill:#000055;stroke:#000055;stroke-width:0.264583px;stroke-linecap:butt;stroke-linejoin:miter;stroke-opacity:1" />
                      <path
                         id="path289"
                         d="m 122.48496,15.310753 c -1.5324,-0.227225 -1.92782,1.681877 -1.55424,2.858059 0.12637,0.397874 0.57013,0.661836 0.68999,1.027771 0.0878,0.267994 -0.0236,0.602672 0.18767,0.825318 0.20472,0.215775 1.05997,0.529238 1.37497,0.628787 2.15996,0.682589 3.69219,-1.10536 1.80876,-2.883788 -0.40656,-0.383895 -0.73368,-0.85541 -1.19884,-1.17539 -0.29965,-0.206133 -0.80614,-0.355796 -0.99467,-0.686234 -0.1239,-0.217174 -0.11812,-0.414491 -0.31364,-0.594523 z"
                         style="fill:#00002b;stroke:#00002b;stroke-width:0.264583px;stroke-linecap:butt;stroke-linejoin:miter;stroke-opacity:1" />
                      <path
                         id="path291"
                         d="m 122.48496,15.310752 c -0.71845,-1.691392 0.63744,-1.252397 1.23086,-1.858414 0.16954,-0.173132 0.17569,-0.523251 0.36376,-0.655224 0.63553,-0.445962 1.26336,-0.04661 1.86477,-0.01228 0.37862,0.02162 0.60214,-0.136884 0.94468,-0.241978 0.78318,-0.240285 1.23828,0.42369 1.75054,0.813387 0.24069,0.18311 0.5549,0.263065 0.71388,0.5524 0.24329,0.442762 -0.40222,1.108176 -0.21589,1.694851 0.14705,0.463017 0.83039,1.476597 0.11101,1.869625 -0.19879,0.108608 -0.52059,-0.239262 -0.79374,-0.280668 -0.62537,-0.0948 -1.26431,-0.0011 -1.89487,-0.100621 -0.63873,-0.100791 -1.24509,-0.333052 -1.87909,-0.440476 -0.98587,-0.167041 -1.58292,-0.672065 -2.19591,-1.340605 z"
                         style="fill:#000055;stroke:#000055;stroke-width:0.264583px;stroke-linecap:butt;stroke-linejoin:miter;stroke-opacity:1" />
                      <g
                         id="g311">
                        <path
                           id="path293"
                           d="m 123.95374,15.242071 c -0.24149,-0.263979 -0.37232,-0.695383 -0.26445,-1.049915 0.30768,-1.011187 1.05132,-0.339535 1.69559,-0.494911 0.59891,-0.144437 0.89929,-0.538227 1.64503,-0.173218 0.0936,0.04582 0.11768,0.2447 0.25667,0.318156 0.3516,0.185817 0.80483,0.04649 0.79335,0.516121 -0.003,0.125481 -0.0931,0.306505 -0.0389,0.427743 0.12002,0.268514 0.55127,0.2561 0.68447,0.526725 0.14331,0.291196 0.0151,0.542749 0.0584,0.837813 0.0281,0.191458 0.33583,0.212889 0.37722,0.417138 0.0516,0.254479 -0.16724,0.420841 -0.20999,0.653988 -0.0349,0.190518 0.17944,0.390116 0.0933,0.639847 -0.10441,0.30281 -0.80664,1.32094 -1.02669,1.594316 -0.0928,0.115334 -0.0241,0.32777 -0.13611,0.424209 -0.28646,0.246689 -0.79064,0.236606 -1.11224,0.420672 -0.28733,0.164449 -0.38961,0.479877 -0.74668,0.579752 -0.69628,0.194755 -2.89455,-0.34087 -3.40673,-1.000424 -0.28611,-0.368437 -0.002,-0.884541 -0.18278,-1.265555 -0.2828,-0.595906 -0.732,-1.398306 -0.58724,-2.075087 0.18147,-0.848327 1.44552,-2.173054 2.10782,-1.29737 z"
                           style="fill:#214478;stroke:#214478;stroke-width:0.24755px;stroke-linecap:butt;stroke-linejoin:miter;stroke-opacity:1" />
                        <g
                           id="g309">
                          <path
                             sodipodi:nodetypes="ccsssssccssssssc"
                             style="fill:#2c5aa0;stroke:#2c5aa0;stroke-width:0.264583px;stroke-linecap:butt;stroke-linejoin:miter;stroke-opacity:1"
                             d="m 123.17722,16.491313 c 0.0754,-0.420388 -0.34364,-0.72287 -0.26317,-1.14288 0.0837,-0.437021 0.47873,-0.316909 0.67255,-0.586477 0.20617,-0.286749 0.30761,-0.633741 0.62243,-0.838362 0.0537,-0.03488 1.9424,-0.218752 2.06779,-0.187974 0.20477,0.05026 0.24966,0.350297 0.40938,0.477453 0.30619,0.243766 0.75236,0.10084 1.04992,0.387767 0.13585,0.130989 -0.0259,0.535424 0.10721,0.691201 0.21811,0.255179 0.74265,0.376034 0.78534,0.721819 0.0341,0.275883 -0.1583,0.489515 -0.17545,0.751894 -0.12039,1.84223 -0.67393,1.129088 -1.70854,2.060192 -1.06567,0.959067 -0.12304,1.409523 -2.16805,1.094006 -0.36311,-0.05602 -0.66998,-0.298628 -0.94408,-0.526326 -0.19512,-0.162088 -0.46112,-0.141747 -0.65584,-0.266922 -0.33798,-0.217261 -0.3653,-1.43666 -0.43027,-1.845902 -0.17727,-1.116659 1.22948,-1.022488 0.63078,-0.789489 z"
                             id="path295" />
                          <g
                             id="g307">
                            <path
                               id="path297"
                               d="m 123.98345,16.141682 c -0.4572,-0.996625 0.68975,-1.576485 1.52473,-1.601535 0.36755,-0.01103 0.61316,0.449959 1.01093,0.515047 0.36806,0.06023 0.5193,0.308133 0.79369,0.541365 0.39139,0.332671 0.15998,0.385983 0.30077,0.808287 0.54853,1.645326 -3.54029,3.863774 -4.10634,1.571459 -0.0728,-0.294688 -0.54901,-0.537472 -0.41356,-0.890995 0.21254,-0.554706 0.8534,-0.874511 0.96497,-1.086488"
                               style="fill:#3771c8;stroke:#3771c8;stroke-width:0.264583px;stroke-linecap:butt;stroke-linejoin:miter;stroke-opacity:1" />
                            <g
                               transform="translate(-0.13229167,0.13229167)"
                               id="g305">
                              <path
                                 style="fill:#2c2ca0;stroke:#2c2ca0;stroke-width:0.264585px;stroke-linecap:butt;stroke-linejoin:miter;stroke-opacity:1"
                                 d="m 125.14477,16.656735 c -0.1025,1.560907 -1.45273,-0.218001 -0.63497,-1.199276 0.66942,-0.803276 2.59881,-0.03108 2.74873,0.913555 0.10712,0.674934 -0.72231,1.135193 -1.24069,1.368453 -0.61906,0.278562 -1.41752,0.495034 -1.76286,-0.281961 -0.11369,-0.255779 -0.0451,-0.505709 -0.0585,-0.770696 -0.0539,-1.067219 1.34974,-0.02057 0.94828,-0.03008 z"
                                 id="path299" />
                              <path
                                 style="fill:#212178;stroke:#212178;stroke-width:0.264583px;stroke-linecap:butt;stroke-linejoin:miter;stroke-opacity:1"
                                 d="m 125.43717,15.976265 c -0.1427,-0.09212 -0.75515,-0.273064 -0.86054,-0.0075 -0.10392,0.261871 0.1584,0.449147 0.20052,0.691743 0.0675,0.388813 0.14553,0.452047 0.5347,0.605276 0.24286,0.09562 0.27278,0.310233 0.63078,0.300757 0.46165,-0.01222 0.79155,-1.152153 0.47204,-1.413562 -0.0309,-0.0253 -0.8923,-0.164898 -0.9775,-0.176695 z"
                                 id="path301" />
                              <path
                                 style="fill:#11002b;stroke:#11002b;stroke-width:0.264583px;stroke-linecap:butt;stroke-linejoin:miter;stroke-opacity:1"
                                 d="m 125.14476,16.656729 c -0.43202,-1.151041 2.01551,-0.178879 0.51799,0.195492 -0.2415,0.06037 -0.36496,-0.01009 -0.51799,-0.195492 z"
                                 id="path303" />
                            </g>
                          </g>
                        </g>
                      </g>
                    </g>
                  </g>
                </g>
              </g>
            </g>
            <g
               id="g85"
               transform="translate(36.669379,-4.8643054)">
              <text
                 transform="matrix(10.621183,0,0,11.425217,-776.76042,-458.61947)"
                 style="font-style:normal;font-variant:normal;font-weight:normal;font-stretch:normal;font-size:10.5833px;line-height:1.25;font-family:'Noto Serif CJK JP';-inkscape-font-specification:'Noto Serif CJK JP, Normal';font-variant-ligatures:normal;font-variant-caps:normal;font-variant-numeric:normal;font-variant-east-asian:normal;letter-spacing:0px;word-spacing:0px;white-space:pre;shape-inside:url(#rect371);fill:#000080;fill-opacity:1;"
                 id="text369"
                 xml:space="preserve"><tspan
                   x="84.744141"
                   y="49.522935"><tspan
                     style="font-style:normal;font-variant:normal;font-weight:normal;font-stretch:normal;font-size:10.5833px;font-family:'Noto Serif CJK JP';-inkscape-font-specification:'Noto Serif CJK JP, Normal';font-variant-ligatures:normal;font-variant-caps:normal;font-variant-numeric:normal;font-variant-east-asian:normal;fill:#000080;fill-opacity:1">B</tspan></tspan></text>
              <text
                 transform="matrix(10.985094,0,0,12.067465,-1617.9704,-1559.3878)"
                 style="font-style:normal;font-variant:normal;font-weight:normal;font-stretch:normal;font-size:10.5833px;line-height:1.25;font-family:'Noto Serif CJK JP';-inkscape-font-specification:'Noto Serif CJK JP, Normal';font-variant-ligatures:normal;font-variant-caps:normal;font-variant-numeric:normal;font-variant-east-asian:normal;letter-spacing:0px;word-spacing:0px;white-space:pre;shape-inside:url(#rect377);fill:#000080;fill-opacity:1;"
                 id="text375"
                 xml:space="preserve"><tspan
                   x="163.51172"
                   y="146.88622"><tspan
                     style="font-style:normal;font-variant:normal;font-weight:normal;font-stretch:normal;font-size:10.5833px;font-family:'Noto Serif CJK JP';-inkscape-font-specification:'Noto Serif CJK JP, Normal';font-variant-ligatures:normal;font-variant-caps:normal;font-variant-numeric:normal;font-variant-east-asian:normal;fill:#000080;fill-opacity:1">P</tspan></tspan></text>
            </g>
          </g>
        </g>
      </g>
    </g>
  </g>
</svg>
