<?xml version="1.0" encoding="UTF-8" standalone="no"?>
<svg
   xmlns:dc="http://purl.org/dc/elements/1.1/"
   xmlns:cc="http://creativecommons.org/ns#"
   xmlns:rdf="http://www.w3.org/1999/02/22-rdf-syntax-ns#"
   xmlns:svg="http://www.w3.org/2000/svg"
   xmlns="http://www.w3.org/2000/svg"
   xmlns:sodipodi="http://sodipodi.sourceforge.net/DTD/sodipodi-0.dtd"
   xmlns:inkscape="http://www.inkscape.org/namespaces/inkscape"
   sodipodi:docname="drawing-2.svg"
   inkscape:version="1.0 (1.0+r73+1)"
   id="svg8"
   version="1.1"
   viewBox="0 0 500 297"
   height="297mm"
   width="500mm">
  <defs
     id="defs2">
    <rect
       id="rect936"
       height="49.182528"
       width="61.471991"
       y="153.41271"
       x="262.19141" />
    <rect
       id="rect924"
       height="54.016098"
       width="48.108516"
       y="92.982142"
       x="214.08289" />
    <rect
       x="214.08289"
       y="92.982142"
       width="48.108516"
       height="54.016098"
       id="rect932" />
  </defs>
  <sodipodi:namedview
     inkscape:window-maximized="1"
     inkscape:window-y="32"
     inkscape:window-x="0"
     inkscape:window-height="1012"
     inkscape:window-width="1920"
     inkscape:guide-bbox="true"
     showguides="true"
     showgrid="false"
     inkscape:document-rotation="0"
     inkscape:current-layer="g864"
     inkscape:document-units="mm"
     inkscape:cy="592.47541"
     inkscape:cx="106.15458"
     inkscape:zoom="0.49497475"
     inkscape:pageshadow="2"
     inkscape:pageopacity="0.0"
     borderopacity="1.0"
     bordercolor="#666666"
     pagecolor="#ffffff"
     id="base">
    <sodipodi:guide
       id="guide884"
       orientation="0,-1"
       position="323.93067,345.64306" />
  </sodipodi:namedview>
  <metadata
     id="metadata5">
    <rdf:RDF>
      <cc:Work
         rdf:about="">
        <dc:format>image/svg+xml</dc:format>
        <dc:type
           rdf:resource="http://purl.org/dc/dcmitype/StillImage" />
        <dc:title></dc:title>
      </cc:Work>
    </rdf:RDF>
  </metadata>
  <g
     id="layer1"
     inkscape:groupmode="layer"
     inkscape:label="Layer 1">
    <g
       transform="translate(0,-1.6036172)"
       id="g864">
      <g
         inkscape:export-ydpi="238.991"
         inkscape:export-xdpi="238.991"
         id="g1240">
        <text
           xml:space="preserve"
           id="text922"
           style="font-size:10.5833px;line-height:1.25;font-family:sans-serif;letter-spacing:0px;word-spacing:0px;white-space:pre;shape-inside:url(#rect924);fill:#5599ff;"
           transform="matrix(12.034626,0,0,11.396222,-2403.5878,-1006.952)"><tspan
             x="214.08203"
             y="102.34616"><tspan
               style="fill:#5599ff">B</tspan></tspan></text>
        <text
           xml:space="preserve"
           id="text934"
           style="font-size:10.5833px;line-height:1.25;font-family:sans-serif;letter-spacing:0px;word-spacing:0px;white-space:pre;shape-inside:url(#rect936);fill:#5599ff;fill-opacity:1;"
           transform="matrix(12.278892,0,0,12.210812,-2984.7543,-1744.8422)"><tspan
             x="262.19141"
             y="162.77585"><tspan
               style="fill:#5599ff;fill-opacity:1">P</tspan></tspan></text>
        <g
           id="g1178"
           transform="matrix(2.1280788,0,0,1.8346306,-323.09556,-92.483167)">
          <path
             id="path940"
             d="m 310.49822,64.216759 c -0.57373,1.943743 -1.01769,3.929764 -1.7212,5.831228 -2.32828,6.293227 -11.74585,12.476409 -15.49064,18.410677 -4.70623,7.457823 -6.09258,16.577656 -11.70401,23.524746 -4.55168,5.63508 -12.44604,11.75089 -14.80218,18.75162 -2.80915,8.34671 -6.30947,18.74932 -11.3598,26.25225 -10.46099,15.54115 -24.19641,32.184 -31.66974,47.0558"
             style="fill:#552200;stroke:#552200;stroke-width:3.15961;stroke-linecap:butt;stroke-linejoin:miter;stroke-miterlimit:4;stroke-dasharray:none;stroke-opacity:1" />
          <g
             transform="translate(-7.1815476,-6.2366071)"
             id="g957">
            <g
               transform="rotate(-40.901432,309.46696,78.80857)"
               id="g1005">
              <g
                 id="g989">
                <g
                   id="g967">
                  <path
                     id="path942"
                     d="m 297.77404,71.784123 c -14.1671,9.107944 -11.75149,-10.626767 -7.4239,-10.22267 3.31273,0.309349 9.22459,9.853272 7.4239,10.22267 z"
                     style="fill:#37abc8;stroke:#37abc8;stroke-width:0.264583px;stroke-linecap:butt;stroke-linejoin:miter;stroke-opacity:1" />
                  <path
                     id="path946"
                     d="m 292.17559,73.608081 c -11.326,12.465262 -14.10207,-7.221979 -9.81742,-7.952075 3.27988,-0.558861 11.46108,7.129073 9.81742,7.952075 z"
                     style="fill:#d7eef4;stroke:#d7eef4;stroke-width:0.264583px;stroke-linecap:butt;stroke-linejoin:miter;stroke-opacity:1" />
                  <path
                     style="fill:#5fbcd3;stroke:#5fbcd3;stroke-width:0.264583px;stroke-linecap:butt;stroke-linejoin:miter;stroke-opacity:1"
                     d="m 292.17559,73.608081 c -2.39598,16.670946 -15.72697,1.920396 -12.58728,-1.085204 2.40343,-2.300752 13.48749,-0.517476 12.58728,1.085204 z"
                     id="path948" />
                  <path
                     id="path950"
                     d="m 292.17559,73.608081 c 16.29867,4.244378 0.15047,15.843069 -2.48536,12.387103 -2.01768,-2.645544 0.99335,-13.460816 2.48536,-12.387103 z"
                     style="fill:#aaccff;stroke:#aaccff;stroke-width:0.264583px;stroke-linecap:butt;stroke-linejoin:miter;stroke-opacity:1" />
                </g>
                <g
                   transform="matrix(-1,0,0,1,584.35118,0)"
                   id="g977">
                  <path
                     style="fill:#37abc8;stroke:#37abc8;stroke-width:0.264583px;stroke-linecap:butt;stroke-linejoin:miter;stroke-opacity:1"
                     d="m 297.77404,71.784123 c -14.1671,9.107944 -11.75149,-10.626767 -7.4239,-10.22267 3.31273,0.309349 9.22459,9.853272 7.4239,10.22267 z"
                     id="path969" />
                  <path
                     style="fill:#d7eef4;stroke:#d7eef4;stroke-width:0.264583px;stroke-linecap:butt;stroke-linejoin:miter;stroke-opacity:1"
                     d="m 292.17559,73.608081 c -11.326,12.465262 -14.10207,-7.221979 -9.81742,-7.952075 3.27988,-0.558861 11.46108,7.129073 9.81742,7.952075 z"
                     id="path971" />
                  <path
                     id="path973"
                     d="m 292.17559,73.608081 c -2.39598,16.670946 -15.72697,1.920396 -12.58728,-1.085204 2.40343,-2.300752 13.48749,-0.517476 12.58728,1.085204 z"
                     style="fill:#5fbcd3;stroke:#5fbcd3;stroke-width:0.264583px;stroke-linecap:butt;stroke-linejoin:miter;stroke-opacity:1" />
                  <path
                     style="fill:#aaccff;stroke:#aaccff;stroke-width:0.264583px;stroke-linecap:butt;stroke-linejoin:miter;stroke-opacity:1"
                     d="m 292.17559,73.608081 c 16.29867,4.244378 0.15047,15.843069 -2.48536,12.387103 -2.01768,-2.645544 0.99335,-13.460816 2.48536,-12.387103 z"
                     id="path975" />
                </g>
              </g>
              <ellipse
                 style="fill:#002255;fill-rule:evenodd;stroke:#002255;stroke-width:0.200041"
                 id="path991"
                 cx="290.41577"
                 cy="73.735542"
                 rx="3.0827098"
                 ry="1.9514138" />
            </g>
            <g
               id="g1031"
               transform="rotate(139.09857,344.71975,112.16587)" />
            <g
               transform="rotate(-40.90143,397.29975,193.35314)"
               id="g1057">
              <g
                 id="g1053">
                <g
                   id="g1041">
                  <path
                     id="path1033"
                     d="m 297.77404,71.784123 c -14.1671,9.107944 -11.75149,-10.626767 -7.4239,-10.22267 3.31273,0.309349 9.22459,9.853272 7.4239,10.22267 z"
                     style="fill:#37abc8;stroke:#37abc8;stroke-width:0.264583px;stroke-linecap:butt;stroke-linejoin:miter;stroke-opacity:1" />
                  <path
                     id="path1035"
                     d="m 292.17559,73.608081 c -11.326,12.465262 -14.10207,-7.221979 -9.81742,-7.952075 3.27988,-0.558861 11.46108,7.129073 9.81742,7.952075 z"
                     style="fill:#d7eef4;stroke:#d7eef4;stroke-width:0.264583px;stroke-linecap:butt;stroke-linejoin:miter;stroke-opacity:1" />
                  <path
                     style="fill:#5fbcd3;stroke:#5fbcd3;stroke-width:0.264583px;stroke-linecap:butt;stroke-linejoin:miter;stroke-opacity:1"
                     d="m 292.17559,73.608081 c -2.39598,16.670946 -15.72697,1.920396 -12.58728,-1.085204 2.40343,-2.300752 13.48749,-0.517476 12.58728,1.085204 z"
                     id="path1037" />
                  <path
                     id="path1039"
                     d="m 292.17559,73.608081 c 16.29867,4.244378 0.15047,15.843069 -2.48536,12.387103 -2.01768,-2.645544 0.99335,-13.460816 2.48536,-12.387103 z"
                     style="fill:#aaccff;stroke:#aaccff;stroke-width:0.264583px;stroke-linecap:butt;stroke-linejoin:miter;stroke-opacity:1" />
                </g>
                <g
                   transform="matrix(-1,0,0,1,584.35118,0)"
                   id="g1051">
                  <path
                     style="fill:#37abc8;stroke:#37abc8;stroke-width:0.264583px;stroke-linecap:butt;stroke-linejoin:miter;stroke-opacity:1"
                     d="m 297.77404,71.784123 c -14.1671,9.107944 -11.75149,-10.626767 -7.4239,-10.22267 3.31273,0.309349 9.22459,9.853272 7.4239,10.22267 z"
                     id="path1043" />
                  <path
                     style="fill:#d7eef4;stroke:#d7eef4;stroke-width:0.264583px;stroke-linecap:butt;stroke-linejoin:miter;stroke-opacity:1"
                     d="m 292.17559,73.608081 c -11.326,12.465262 -14.10207,-7.221979 -9.81742,-7.952075 3.27988,-0.558861 11.46108,7.129073 9.81742,7.952075 z"
                     id="path1045" />
                  <path
                     id="path1047"
                     d="m 292.17559,73.608081 c -2.39598,16.670946 -15.72697,1.920396 -12.58728,-1.085204 2.40343,-2.300752 13.48749,-0.517476 12.58728,1.085204 z"
                     style="fill:#5fbcd3;stroke:#5fbcd3;stroke-width:0.264583px;stroke-linecap:butt;stroke-linejoin:miter;stroke-opacity:1" />
                  <path
                     style="fill:#aaccff;stroke:#aaccff;stroke-width:0.264583px;stroke-linecap:butt;stroke-linejoin:miter;stroke-opacity:1"
                     d="m 292.17559,73.608081 c 16.29867,4.244378 0.15047,15.843069 -2.48536,12.387103 -2.01768,-2.645544 0.99335,-13.460816 2.48536,-12.387103 z"
                     id="path1049" />
                </g>
              </g>
              <ellipse
                 style="fill:#002255;fill-rule:evenodd;stroke:#002255;stroke-width:0.200041"
                 id="ellipse1055"
                 cx="290.41577"
                 cy="73.735542"
                 rx="3.0827098"
                 ry="1.9514138" />
            </g>
            <g
               id="g1083"
               transform="matrix(-0.75583713,-0.65475968,-0.65475968,0.75583713,589.74979,211.1667)">
              <g
                 id="g1079">
                <g
                   id="g1067">
                  <path
                     style="fill:#37abc8;stroke:#37abc8;stroke-width:0.264583px;stroke-linecap:butt;stroke-linejoin:miter;stroke-opacity:1"
                     d="m 297.77404,71.784123 c -14.1671,9.107944 -11.75149,-10.626767 -7.4239,-10.22267 3.31273,0.309349 9.22459,9.853272 7.4239,10.22267 z"
                     id="path1059" />
                  <path
                     style="fill:#d7eef4;stroke:#d7eef4;stroke-width:0.264583px;stroke-linecap:butt;stroke-linejoin:miter;stroke-opacity:1"
                     d="m 292.17559,73.608081 c -11.326,12.465262 -14.10207,-7.221979 -9.81742,-7.952075 3.27988,-0.558861 11.46108,7.129073 9.81742,7.952075 z"
                     id="path1061" />
                  <path
                     id="path1063"
                     d="m 292.17559,73.608081 c -2.39598,16.670946 -15.72697,1.920396 -12.58728,-1.085204 2.40343,-2.300752 13.48749,-0.517476 12.58728,1.085204 z"
                     style="fill:#5fbcd3;stroke:#5fbcd3;stroke-width:0.264583px;stroke-linecap:butt;stroke-linejoin:miter;stroke-opacity:1" />
                  <path
                     style="fill:#aaccff;stroke:#aaccff;stroke-width:0.264583px;stroke-linecap:butt;stroke-linejoin:miter;stroke-opacity:1"
                     d="m 292.17559,73.608081 c 16.29867,4.244378 0.15047,15.843069 -2.48536,12.387103 -2.01768,-2.645544 0.99335,-13.460816 2.48536,-12.387103 z"
                     id="path1065" />
                </g>
                <g
                   id="g1077"
                   transform="matrix(-1,0,0,1,584.35118,0)">
                  <path
                     id="path1069"
                     d="m 297.77404,71.784123 c -14.1671,9.107944 -11.75149,-10.626767 -7.4239,-10.22267 3.31273,0.309349 9.22459,9.853272 7.4239,10.22267 z"
                     style="fill:#37abc8;stroke:#37abc8;stroke-width:0.264583px;stroke-linecap:butt;stroke-linejoin:miter;stroke-opacity:1" />
                  <path
                     id="path1071"
                     d="m 292.17559,73.608081 c -11.326,12.465262 -14.10207,-7.221979 -9.81742,-7.952075 3.27988,-0.558861 11.46108,7.129073 9.81742,7.952075 z"
                     style="fill:#d7eef4;stroke:#d7eef4;stroke-width:0.264583px;stroke-linecap:butt;stroke-linejoin:miter;stroke-opacity:1" />
                  <path
                     style="fill:#5fbcd3;stroke:#5fbcd3;stroke-width:0.264583px;stroke-linecap:butt;stroke-linejoin:miter;stroke-opacity:1"
                     d="m 292.17559,73.608081 c -2.39598,16.670946 -15.72697,1.920396 -12.58728,-1.085204 2.40343,-2.300752 13.48749,-0.517476 12.58728,1.085204 z"
                     id="path1073" />
                  <path
                     id="path1075"
                     d="m 292.17559,73.608081 c 16.29867,4.244378 0.15047,15.843069 -2.48536,12.387103 -2.01768,-2.645544 0.99335,-13.460816 2.48536,-12.387103 z"
                     style="fill:#aaccff;stroke:#aaccff;stroke-width:0.264583px;stroke-linecap:butt;stroke-linejoin:miter;stroke-opacity:1" />
                </g>
              </g>
              <ellipse
                 ry="1.9514138"
                 rx="3.0827098"
                 cy="73.735542"
                 cx="290.41577"
                 id="ellipse1081"
                 style="fill:#002255;fill-rule:evenodd;stroke:#002255;stroke-width:0.200041" />
            </g>
            <g
               transform="rotate(139.09857,238.5303,128.56909)"
               id="g1109">
              <g
                 id="g1105">
                <g
                   id="g1093">
                  <path
                     id="path1085"
                     d="m 297.77404,71.784123 c -14.1671,9.107944 -11.75149,-10.626767 -7.4239,-10.22267 3.31273,0.309349 9.22459,9.853272 7.4239,10.22267 z"
                     style="fill:#37abc8;stroke:#37abc8;stroke-width:0.264583px;stroke-linecap:butt;stroke-linejoin:miter;stroke-opacity:1" />
                  <path
                     id="path1087"
                     d="m 292.17559,73.608081 c -11.326,12.465262 -14.10207,-7.221979 -9.81742,-7.952075 3.27988,-0.558861 11.46108,7.129073 9.81742,7.952075 z"
                     style="fill:#d7eef4;stroke:#d7eef4;stroke-width:0.264583px;stroke-linecap:butt;stroke-linejoin:miter;stroke-opacity:1" />
                  <path
                     style="fill:#5fbcd3;stroke:#5fbcd3;stroke-width:0.264583px;stroke-linecap:butt;stroke-linejoin:miter;stroke-opacity:1"
                     d="m 292.17559,73.608081 c -2.39598,16.670946 -15.72697,1.920396 -12.58728,-1.085204 2.40343,-2.300752 13.48749,-0.517476 12.58728,1.085204 z"
                     id="path1089" />
                  <path
                     id="path1091"
                     d="m 292.17559,73.608081 c 16.29867,4.244378 0.15047,15.843069 -2.48536,12.387103 -2.01768,-2.645544 0.99335,-13.460816 2.48536,-12.387103 z"
                     style="fill:#aaccff;stroke:#aaccff;stroke-width:0.264583px;stroke-linecap:butt;stroke-linejoin:miter;stroke-opacity:1" />
                </g>
                <g
                   transform="matrix(-1,0,0,1,584.35118,0)"
                   id="g1103">
                  <path
                     style="fill:#37abc8;stroke:#37abc8;stroke-width:0.264583px;stroke-linecap:butt;stroke-linejoin:miter;stroke-opacity:1"
                     d="m 297.77404,71.784123 c -14.1671,9.107944 -11.75149,-10.626767 -7.4239,-10.22267 3.31273,0.309349 9.22459,9.853272 7.4239,10.22267 z"
                     id="path1095" />
                  <path
                     style="fill:#d7eef4;stroke:#d7eef4;stroke-width:0.264583px;stroke-linecap:butt;stroke-linejoin:miter;stroke-opacity:1"
                     d="m 292.17559,73.608081 c -11.326,12.465262 -14.10207,-7.221979 -9.81742,-7.952075 3.27988,-0.558861 11.46108,7.129073 9.81742,7.952075 z"
                     id="path1097" />
                  <path
                     id="path1099"
                     d="m 292.17559,73.608081 c -2.39598,16.670946 -15.72697,1.920396 -12.58728,-1.085204 2.40343,-2.300752 13.48749,-0.517476 12.58728,1.085204 z"
                     style="fill:#5fbcd3;stroke:#5fbcd3;stroke-width:0.264583px;stroke-linecap:butt;stroke-linejoin:miter;stroke-opacity:1" />
                  <path
                     style="fill:#aaccff;stroke:#aaccff;stroke-width:0.264583px;stroke-linecap:butt;stroke-linejoin:miter;stroke-opacity:1"
                     d="m 292.17559,73.608081 c 16.29867,4.244378 0.15047,15.843069 -2.48536,12.387103 -2.01768,-2.645544 0.99335,-13.460816 2.48536,-12.387103 z"
                     id="path1101" />
                </g>
              </g>
              <ellipse
                 style="fill:#002255;fill-rule:evenodd;stroke:#002255;stroke-width:0.200041"
                 id="ellipse1107"
                 cx="290.41577"
                 cy="73.735542"
                 rx="3.0827098"
                 ry="1.9514138" />
            </g>
          </g>
        </g>
      </g>
    </g>
  </g>
</svg>
